# xmcd
#
# Track frame offsets: 
#        150
#        9744
#        22840
#        40433
#        60105
#        77545
#        93558
#        107389
#        120442
#        133981
#
# Disc length: 2048 seconds
#
# Revision: 3
# Processed by: cddbd v1.5.1PL2 Copyright (c) Steve Scherf et al.
# Submitted via: ExactAudioCopy v0.95b4
#
DISCID=6f07fe0a
DTITLE=Gail Davies - Pretty Words
DYEAR=1989
DGENRE=country
TTITLE0=Waiting Here For You
TTITLE1=I Don't Know Why
TTITLE2=Hearts In The Wind
TTITLE3=I've Had Enough
TTITLE4=Somewhere Tonight
TTITLE5=Pretty Words
TTITLE6=It's Just A Matter Of Time
TTITLE7=I'm Ready To Fall In Love Again
TTITLE8=Meet Me Halfway
TTITLE9=I Will Rise And Shine Again 
EXTD=MillenniumMusicProjectFormat
EXTT0=
EXTT1=
EXTT2=
EXTT3=
EXTT4=
EXTT5=
EXTT6=
EXTT7=
EXTT8=
EXTT9=
PLAYORDER=
